<?xml version="1.0" standalone="no"?><!DOCTYPE svg PUBLIC "-//W3C//DTD SVG 1.1//EN" "http://www.w3.org/Graphics/SVG/1.1/DTD/svg11.dtd"><svg t="1586927863760" class="icon" viewBox="0 0 1024 1024" version="1.1" xmlns="http://www.w3.org/2000/svg" p-id="2719" xmlns:xlink="http://www.w3.org/1999/xlink" width="50" height="50"><defs><style type="text/css"></style></defs><path d="M768 307.2a51.2 51.2 0 0 1 51.2 51.2v102.4a51.2 51.2 0 0 1-51.2 51.2h-102.4c-28.16 0-51.2-23.04-51.2-51.2V358.4a51.2 51.2 0 0 1 51.2-51.2h102.4zM358.4 460.8H256a51.2 51.2 0 0 1 0-102.4h102.4a51.2 51.2 0 0 1 0 102.4z m404.1216 155.8016c-51.5584 263.0656-449.4848 257.7408-501.0432-5.3248-5.9904-30.6688 19.456-48.0768 50.7392-48.0768h0.8704c24.3712 0 44.3392 12.288 49.92 36.0448 35.328 149.6576 262.656 144.3328 297.984-5.3248 5.5808-23.7568 25.5488-30.72 49.92-30.72h0.8704c31.2832 0 56.7296 22.7328 50.7392 53.4016zM921.6 850.688c0 28.3136-22.9376 70.912-51.2 70.912H153.6c-28.2624 0-51.2-42.5984-51.2-70.912v-358.4C102.4 266.4448 286.1568 102.4 512 102.4s409.6 164.0448 409.6 389.888v358.4zM512 0C161.4848 0 0 259.5328 0 492.288v409.6C0 958.464 45.824 1024 102.4 1024h819.2c56.576 0 102.4-65.536 102.4-122.112v-409.6C1024 263.936 867.7376 0 512 0z" fill="#ffffff" p-id="2720" data-spm-anchor-id="a313x.7781069.0.i0" class="selected"></path></svg>